<?xml version="1.0" encoding="UTF-8" standalone="no"?>
<!-- Created with Inkscape (http://www.inkscape.org/) -->

<svg
   width="1536"
   height="480"
   viewBox="0 0 406.40001 127"
   version="1.1"
   id="svg1"
   inkscape:version="1.3.2 (091e20e, 2023-11-25, custom)"
   xml:space="preserve"
   sodipodi:docname="gradient-descent.svg"
   xmlns:inkscape="http://www.inkscape.org/namespaces/inkscape"
   xmlns:sodipodi="http://sodipodi.sourceforge.net/DTD/sodipodi-0.dtd"
   xmlns:xlink="http://www.w3.org/1999/xlink"
   xmlns="http://www.w3.org/2000/svg"
   xmlns:svg="http://www.w3.org/2000/svg"><sodipodi:namedview
     id="namedview1"
     pagecolor="#949494"
     bordercolor="#000000"
     borderopacity="0.25"
     inkscape:showpageshadow="true"
     inkscape:pageopacity="0.0"
     inkscape:pagecheckerboard="true"
     inkscape:deskcolor="#595959"
     inkscape:document-units="px"
     showguides="true"
     inkscape:zoom="0.84312663"
     inkscape:cx="764.41661"
     inkscape:cy="122.16433"
     inkscape:window-width="2560"
     inkscape:window-height="1334"
     inkscape:window-x="-11"
     inkscape:window-y="-11"
     inkscape:window-maximized="1"
     inkscape:current-layer="g76" /><defs
     id="defs1"><marker
       style="overflow:visible"
       id="Triangle"
       refX="1.5"
       refY="0"
       orient="auto-start-reverse"
       inkscape:stockid="Triangle arrow"
       markerWidth="0.5"
       markerHeight="0.5"
       viewBox="0 0 1 1"
       inkscape:isstock="true"
       inkscape:collect="always"
       preserveAspectRatio="xMidYMid"
       markerUnits="strokeWidth"><path
         transform="scale(0.5)"
         style="fill:context-stroke;fill-rule:evenodd;stroke:context-stroke;stroke-width:1pt"
         d="M 5.77,0 -2.88,5 V -5 Z"
         id="path135" /></marker><linearGradient
       id="linearGradient1"
       inkscape:collect="always"><stop
         style="stop-color:#11111b;stop-opacity:1;"
         offset="0"
         id="stop1" /><stop
         style="stop-color:#1e1e2e;stop-opacity:1;"
         offset="1"
         id="stop2" /></linearGradient><linearGradient
       inkscape:collect="always"
       xlink:href="#linearGradient1"
       id="linearGradient2"
       x1="0"
       y1="127"
       x2="406.39999"
       y2="0"
       gradientUnits="userSpaceOnUse" /><clipPath
       clipPathUnits="userSpaceOnUse"
       id="clipPath53"><ellipse
         style="fill:#cba6f7;fill-opacity:1;fill-rule:evenodd;stroke:#a6adc8;stroke-width:0.28811;stroke-opacity:1"
         id="ellipse54"
         ry="19.446875"
         rx="65.484596"
         cy="-102.66351"
         cx="249.50897"
         inkscape:label="level-1"
         transform="rotate(-15)" /></clipPath><clipPath
       clipPathUnits="userSpaceOnUse"
       id="clipPath55"><ellipse
         style="fill:#cba6f7;fill-opacity:1;fill-rule:evenodd;stroke:#a6adc8;stroke-width:0.309981;stroke-opacity:1"
         id="ellipse56"
         ry="25.765478"
         rx="57.213638"
         cy="-134.60791"
         cx="147.70163"
         inkscape:label="level-1"
         transform="rotate(-15)" /></clipPath></defs><g
     id="g76"
     inkscape:label="gradient-descent"><rect
       style="fill:url(#linearGradient2);fill-opacity:1;fill-rule:evenodd;stroke-width:0.770694"
       id="rect1"
       width="406.39999"
       height="127"
       x="0"
       y="0"
       inkscape:label="bkgd"
       sodipodi:insensitive="true" /><g
       id="g75"
       inkscape:label="gradient-constant-lines"><path
         id="path48"
         style="fill:#313244;fill-rule:evenodd;stroke-width:0.705574;stroke:#a6adc8;fill-opacity:1;stroke-opacity:1"
         inkscape:label="level-6"
         d="M 203.2 15.875 A 160.37044 47.625 0 0 0 42.829428 63.500001 A 160.37044 47.625 0 0 0 203.2 111.125 A 160.37044 47.625 0 0 0 363.57058 63.500001 A 160.37044 47.625 0 0 0 203.2 15.875 z M 203.2 19.976042 A 146.56076 43.52396 0 0 1 349.76057 63.500001 A 146.56076 43.52396 0 0 1 203.2 107.02396 A 146.56076 43.52396 0 0 1 56.639438 63.500001 A 146.56076 43.52396 0 0 1 203.2 19.976042 z " /><path
         id="ellipse48"
         style="fill:#45475a;fill-opacity:1;fill-rule:evenodd;stroke:#a6adc8;stroke-width:0.644816;stroke-opacity:1"
         inkscape:label="level-5"
         d="M 203.2 19.976042 A 146.56076 43.52396 0 0 0 56.639438 63.500001 A 146.56076 43.52396 0 0 0 203.2 107.02396 A 146.56076 43.52396 0 0 0 349.76057 63.500001 A 146.56076 43.52396 0 0 0 203.2 19.976042 z M 203.2 24.60625 A 130.96919 38.893749 0 0 1 334.16927 63.500001 A 130.96919 38.893749 0 0 1 203.2 102.39375 A 130.96919 38.893749 0 0 1 72.230734 63.500001 A 130.96919 38.893749 0 0 1 203.2 24.60625 z " /><path
         id="ellipse49"
         style="fill:#585b70;fill-opacity:1;fill-rule:evenodd;stroke:#a6adc8;stroke-width:0.576219;stroke-opacity:1"
         inkscape:label="level-4"
         d="M 203.2 24.60625 A 130.96919 38.893749 0 0 0 72.230734 63.500001 A 130.96919 38.893749 0 0 0 203.2 102.39375 A 130.96919 38.893749 0 0 0 334.16927 63.500001 A 130.96919 38.893749 0 0 0 203.2 24.60625 z M 203.2 29.765625 A 113.59573 33.734375 0 0 1 316.79565 63.500001 A 113.59573 33.734375 0 0 1 203.2 97.234376 A 113.59573 33.734375 0 0 1 89.604351 63.500001 A 113.59573 33.734375 0 0 1 203.2 29.765625 z " /><path
         id="ellipse50"
         style="fill:#6c7086;fill-opacity:1;fill-rule:evenodd;stroke:#a6adc8;stroke-width:0.499782;stroke-opacity:1"
         inkscape:label="level-3"
         d="M 203.2 29.765625 A 113.59573 33.734375 0 0 0 89.604351 63.500001 A 113.59573 33.734375 0 0 0 203.2 97.234376 A 113.59573 33.734375 0 0 0 316.79565 63.500001 A 113.59573 33.734375 0 0 0 203.2 29.765625 z M 203.2 35.983334 A 92.658478 27.516666 0 0 1 295.85843 63.500001 A 92.658478 27.516666 0 0 1 203.2 91.016668 A 92.658478 27.516666 0 0 1 110.54157 63.500001 A 92.658478 27.516666 0 0 1 203.2 35.983334 z " /><path
         id="ellipse51"
         style="fill:#7f849c;fill-opacity:1;fill-rule:evenodd;stroke:#a6adc8;stroke-width:0.407665;stroke-opacity:1"
         inkscape:label="level-2"
         d="M 203.2 35.983334 A 92.658478 27.516666 0 0 0 110.54157 63.500001 A 92.658478 27.516666 0 0 0 203.2 91.016668 A 92.658478 27.516666 0 0 0 295.85843 63.500001 A 92.658478 27.516666 0 0 0 203.2 35.983334 z M 203.2 44.053126 A 65.484596 19.446875 0 0 1 268.68438 63.500001 A 65.484596 19.446875 0 0 1 203.2 82.946876 A 65.484596 19.446875 0 0 1 137.71563 63.500001 A 65.484596 19.446875 0 0 1 203.2 44.053126 z " /><ellipse
         style="fill:#9399b2;fill-opacity:1;fill-rule:evenodd;stroke:#a6adc8;stroke-width:0.28811;stroke-opacity:1"
         id="ellipse52"
         ry="19.446875"
         rx="65.484596"
         cy="63.5"
         cx="203.2"
         inkscape:label="level-1" /></g><g
       id="g65"
       inkscape:label="batch-gradient-path"
       style="display:inline;stroke-width:2.11667;stroke-dasharray:none"
       transform="matrix(0.95492047,0,0,1.216175,5.717375,-20.902225)"><path
         style="font-variation-settings:'wght' 700;opacity:1;fill:#cba6f7;fill-opacity:0.35;stroke:#74c7ec;stroke-width:2.45516595;stroke-linecap:round;stroke-linejoin:round;stroke-dasharray:none;stroke-opacity:1"
         d="M 122.89645,96.357286 134.08227,77.830957"
         id="path57"
         inkscape:label="step-1" /><path
         style="font-variation-settings:'wght' 700;opacity:1;fill:#cba6f7;fill-opacity:0.35;stroke:#74c7ec;stroke-width:2.45516595;stroke-linecap:round;stroke-linejoin:round;stroke-dasharray:none;stroke-opacity:1"
         d="m 134.08227,77.830957 15.3099,-8.487624"
         id="path58"
         sodipodi:nodetypes="cc"
         inkscape:label="step-2" /><path
         style="font-variation-settings:'wght' 700;opacity:1;fill:#cba6f7;fill-opacity:0.35;stroke:#74c7ec;stroke-width:2.45516595;stroke-linecap:round;stroke-linejoin:round;stroke-dasharray:none;stroke-opacity:1"
         d="m 149.39217,69.343333 12.37085,-3.162056"
         id="path59"
         sodipodi:nodetypes="cc"
         inkscape:label="step-3" /><path
         style="font-variation-settings:'wght' 700;opacity:1;fill:#cba6f7;fill-opacity:0.35;stroke:#74c7ec;stroke-width:2.45516595;stroke-linecap:round;stroke-linejoin:round;stroke-dasharray:none;stroke-opacity:1"
         d="m 149.39217,69.343333 12.37085,-3.162056"
         id="path60"
         sodipodi:nodetypes="cc"
         inkscape:label="step-4" /><path
         style="font-variation-settings:'wght' 700;opacity:1;fill:#cba6f7;fill-opacity:0.35;stroke:#74c7ec;stroke-width:2.45516595;stroke-linecap:round;stroke-linejoin:round;stroke-dasharray:none;stroke-opacity:1"
         d="m 161.76302,66.181277 9.70807,-0.565921"
         id="path61"
         sodipodi:nodetypes="cc"
         inkscape:label="step-5" /><path
         style="font-variation-settings:'wght' 700;opacity:1;fill:#cba6f7;fill-opacity:0.35;stroke:#74c7ec;stroke-width:2.45516595;stroke-linecap:round;stroke-linejoin:round;stroke-dasharray:none;stroke-opacity:1"
         d="m 171.47109,65.615356 9.08452,2.248271"
         id="path62"
         sodipodi:nodetypes="cc"
         inkscape:label="step-6" /><path
         style="font-variation-settings:'wght' 700;opacity:1;fill:#cba6f7;fill-opacity:0.35;stroke:#74c7ec;stroke-width:2.45516595;stroke-linecap:round;stroke-linejoin:round;stroke-dasharray:none;stroke-opacity:1"
         d="m 180.55561,67.863627 8.11261,0.692634"
         id="path63"
         sodipodi:nodetypes="cc"
         inkscape:label="step-7" /><path
         style="font-variation-settings:'wght' 700;opacity:1;fill:#cba6f7;fill-opacity:0.35;stroke:#74c7ec;stroke-width:2.45516595;stroke-linecap:round;stroke-linejoin:round;stroke-dasharray:none;stroke-opacity:1"
         d="m 188.66822,68.556261 7.87741,0.589453"
         id="path64"
         sodipodi:nodetypes="cc"
         inkscape:label="step-8" /><path
         style="font-variation-settings:'wght' 700;opacity:1;fill:#cba6f7;fill-opacity:0.35;stroke:#74c7ec;stroke-width:2.45516595;stroke-linecap:round;stroke-linejoin:round;stroke-dasharray:none;stroke-opacity:1;marker-end:url(#Triangle)"
         d="m 196.54563,69.145714 5.72097,0.254023"
         id="path65"
         sodipodi:nodetypes="cc"
         inkscape:label="step-9" /></g><g
       id="g74"
       inkscape:label="stochastic-gradient-descent"><path
         style="font-variation-settings:'wght' 700;display:inline;opacity:1;fill:#cba6f7;fill-opacity:0.35;stroke:#a6e3a1;stroke-width:2.64583337;stroke-linecap:round;stroke-linejoin:round;stroke-opacity:1;stroke-dasharray:none"
         d="M 122.89645,96.357286 116.03807,48.803338"
         id="path66"
         inkscape:label="step-1"
         sodipodi:nodetypes="cc" /><path
         style="font-variation-settings:'wght' 700;display:inline;opacity:1;fill:#cba6f7;fill-opacity:0.35;stroke:#a6e3a1;stroke-width:2.64583337;stroke-linecap:round;stroke-linejoin:round;stroke-opacity:1;stroke-dasharray:none"
         d="m 116.03807,48.803338 33.30158,27.200477"
         id="path67"
         sodipodi:nodetypes="cc"
         inkscape:label="step-2" /><path
         style="font-variation-settings:'wght' 700;display:inline;opacity:1;fill:#cba6f7;fill-opacity:0.35;stroke:#a6e3a1;stroke-width:2.64583337;stroke-linecap:round;stroke-linejoin:round;stroke-opacity:1;stroke-dasharray:none"
         d="M 159.10023,56.917008 148.70465,51.480491"
         id="path68"
         sodipodi:nodetypes="cc"
         inkscape:label="step-3" /><path
         style="font-variation-settings:'wght' 700;display:inline;opacity:1;fill:#cba6f7;fill-opacity:0.35;stroke:#a6e3a1;stroke-width:2.64583337;stroke-linecap:round;stroke-linejoin:round;stroke-opacity:1;stroke-dasharray:none"
         d="m 149.33965,76.003815 9.76058,-19.086807"
         id="path69"
         sodipodi:nodetypes="cc"
         inkscape:label="step-4" /><path
         style="font-variation-settings:'wght' 700;display:inline;opacity:1;fill:#cba6f7;fill-opacity:0.35;stroke:#a6e3a1;stroke-width:2.64583337;stroke-linecap:round;stroke-linejoin:round;stroke-opacity:1;stroke-dasharray:none"
         d="M 148.70465,51.480491 167.14108,47.267"
         id="path70"
         sodipodi:nodetypes="cc"
         inkscape:label="step-5" /><path
         style="font-variation-settings:'wght' 700;display:inline;opacity:1;fill:#cba6f7;fill-opacity:0.35;stroke:#a6e3a1;stroke-width:2.64583337;stroke-linecap:round;stroke-linejoin:round;stroke-opacity:1;stroke-dasharray:none"
         d="m 167.14237,47.266702 12.31706,21.566932"
         id="path71"
         sodipodi:nodetypes="cc"
         inkscape:label="step-6" /><path
         style="font-variation-settings:'wght' 700;display:inline;opacity:1;fill:#cba6f7;fill-opacity:0.35;stroke:#a6e3a1;stroke-width:2.64583337;stroke-linecap:round;stroke-linejoin:round;stroke-opacity:1;stroke-dasharray:none"
         d="m 179.45943,68.833634 7.37814,-18.195859"
         id="path73"
         sodipodi:nodetypes="cc"
         inkscape:label="step-7" /><path
         style="font-variation-settings:'wght' 700;display:inline;opacity:1;fill:#cba6f7;fill-opacity:0.35;stroke:#a6e3a1;stroke-width:2.64583337;stroke-linecap:round;stroke-linejoin:round;stroke-dasharray:none;stroke-opacity:1;marker-end:url(#Triangle)"
         d="m 186.83757,50.637775 11.89944,8.603885"
         id="path74"
         sodipodi:nodetypes="cc"
         inkscape:label="step-8" /></g></g></svg>
