<?xml version="1.0" encoding="UTF-8" standalone="no"?>
<!-- Created with Inkscape (http://www.inkscape.org/) -->

<svg
   width="1200"
   height="628"
   viewBox="0 0 1200 628"
   version="1.1"
   id="svg1"
   inkscape:version="1.3.2 (091e20e, 2023-11-25, custom)"
   xml:space="preserve"
   sodipodi:docname="notebook_vs_production.svg"
   xmlns:inkscape="http://www.inkscape.org/namespaces/inkscape"
   xmlns:sodipodi="http://sodipodi.sourceforge.net/DTD/sodipodi-0.dtd"
   xmlns="http://www.w3.org/2000/svg"
   xmlns:svg="http://www.w3.org/2000/svg"><sodipodi:namedview
     id="namedview1"
     pagecolor="#dedede"
     bordercolor="#000000"
     borderopacity="0.25"
     inkscape:showpageshadow="true"
     inkscape:pageopacity="0.0"
     inkscape:pagecheckerboard="false"
     inkscape:deskcolor="#595959"
     inkscape:document-units="px"
     showguides="true"
     inkscape:zoom="1.4142136"
     inkscape:cx="302.6417"
     inkscape:cy="230.87036"
     inkscape:window-width="2560"
     inkscape:window-height="1334"
     inkscape:window-x="-11"
     inkscape:window-y="-11"
     inkscape:window-maximized="1"
     inkscape:current-layer="svg1" /><defs
     id="defs1"><inkscape:path-effect
       effect="fillet_chamfer"
       id="path-effect49"
       is_visible="true"
       lpeversion="1"
       nodesatellites_param="F,0,0,1,0,2,0,1 @ F,0,0,1,0,2,0,1 @ F,0,0,1,0,2,0,1"
       radius="2"
       unit="px"
       method="auto"
       mode="F"
       chamfer_steps="1"
       flexible="false"
       use_knot_distance="true"
       apply_no_radius="true"
       apply_with_radius="true"
       only_selected="false"
       hide_knots="false" /><inkscape:path-effect
       effect="fillet_chamfer"
       id="path-effect39"
       is_visible="true"
       lpeversion="1"
       nodesatellites_param="F,0,0,1,0,2,0,1 @ F,0,0,1,0,2,0,1 @ F,0,0,1,0,2,0,1"
       radius="2"
       unit="px"
       method="auto"
       mode="F"
       chamfer_steps="1"
       flexible="false"
       use_knot_distance="true"
       apply_no_radius="true"
       apply_with_radius="true"
       only_selected="false"
       hide_knots="false" /><inkscape:path-effect
       effect="fillet_chamfer"
       id="path-effect25"
       is_visible="true"
       lpeversion="1"
       nodesatellites_param="F,0,0,1,0,2,0,1 @ F,0,0,1,0,2,0,1 @ F,0,0,1,0,2,0,1"
       radius="2"
       unit="px"
       method="auto"
       mode="F"
       chamfer_steps="1"
       flexible="false"
       use_knot_distance="true"
       apply_no_radius="true"
       apply_with_radius="true"
       only_selected="false"
       hide_knots="false" /><inkscape:path-effect
       effect="fillet_chamfer"
       id="path-effect23"
       is_visible="true"
       lpeversion="1"
       nodesatellites_param="F,0,0,1,0,2,0,1 @ F,0,0,1,0,2,0,1 @ F,0,0,1,0,2,0,1"
       radius="2"
       unit="px"
       method="auto"
       mode="F"
       chamfer_steps="1"
       flexible="false"
       use_knot_distance="true"
       apply_no_radius="true"
       apply_with_radius="true"
       only_selected="false"
       hide_knots="false" /><inkscape:path-effect
       effect="fillet_chamfer"
       id="path-effect21"
       is_visible="true"
       lpeversion="1"
       nodesatellites_param="F,0,0,1,0,0,0,1 @ F,0,0,1,0,0,0,1 @ F,0,0,1,0,0,0,1"
       radius="0"
       unit="px"
       method="auto"
       mode="F"
       chamfer_steps="1"
       flexible="false"
       use_knot_distance="true"
       apply_no_radius="true"
       apply_with_radius="true"
       only_selected="false"
       hide_knots="false" /></defs><g
     id="g67"
     inkscape:label="Production"><rect
       x="600"
       y="0"
       width="600"
       height="628"
       style="color:#ffffff;font-weight:400;font-size:16px;font-family:'Anthropic Sans', '-apple-system', BlinkMacSystemFont, 'Segoe UI', sans-serif;dominant-baseline:auto;text-anchor:start;fill:#0d1117;stroke:none;stroke-width:1.88897px;stroke-linecap:butt;stroke-linejoin:miter"
       id="rect33-7"
       inkscape:label="Background" /><g
       id="g66"
       inkscape:label="Nodes"
       transform="matrix(1.1909625,0,0,1.1909625,-187.25563,-46.037757)"><line
         x1="797.14282"
         y1="152.57143"
         x2="874.28571"
         y2="190.28571"
         style="color:#ffffff;font-weight:400;font-size:16px;font-family:'Anthropic Sans', '-apple-system', BlinkMacSystemFont, 'Segoe UI', sans-serif;dominant-baseline:auto;text-anchor:start;fill:#000000;stroke:#30363d;stroke-width:1.37143px;stroke-linecap:butt;stroke-linejoin:miter"
         id="line42" /><line
         x1="1042.2858"
         y1="152.57143"
         x2="960"
         y2="190.28571"
         style="color:#ffffff;font-weight:400;font-size:16px;font-family:'Anthropic Sans', '-apple-system', BlinkMacSystemFont, 'Segoe UI', sans-serif;dominant-baseline:auto;text-anchor:start;fill:#000000;stroke:#30363d;stroke-width:1.37143px;stroke-linecap:butt;stroke-linejoin:miter"
         id="line43" /><line
         x1="797.14282"
         y1="294.85715"
         x2="874.28571"
         y2="255.42857"
         stroke-dasharray="4,3"
         style="color:#ffffff;font-weight:400;font-size:16px;font-family:'Anthropic Sans', '-apple-system', BlinkMacSystemFont, 'Segoe UI', sans-serif;dominant-baseline:auto;text-anchor:start;fill:#000000;stroke:#e3b341;stroke-width:2.57143px;stroke-linecap:butt;stroke-linejoin:miter;stroke-dasharray:6.85714px, 5.14286px"
         id="line44" /><line
         x1="1042.2858"
         y1="294.85715"
         x2="960"
         y2="255.42857"
         style="color:#ffffff;font-weight:400;font-size:16px;font-family:'Anthropic Sans', '-apple-system', BlinkMacSystemFont, 'Segoe UI', sans-serif;dominant-baseline:auto;text-anchor:start;fill:#000000;stroke:#30363d;stroke-width:1.37143px;stroke-linecap:butt;stroke-linejoin:miter"
         id="line45" /><line
         x1="917.14282"
         y1="270.85715"
         x2="917.14282"
         y2="353.14285"
         style="color:#ffffff;font-weight:400;font-size:16px;font-family:'Anthropic Sans', '-apple-system', BlinkMacSystemFont, 'Segoe UI', sans-serif;dominant-baseline:auto;text-anchor:start;fill:#000000;stroke:#3fb950;stroke-width:2.57143px;stroke-linecap:butt;stroke-linejoin:miter"
         id="line46" /><g
         id="g65"><circle
           cx="917.14282"
           cy="222.85715"
           r="48"
           style="color:#ffffff;font-weight:400;font-size:16px;font-family:'Anthropic Sans', '-apple-system', BlinkMacSystemFont, 'Segoe UI', sans-serif;dominant-baseline:auto;text-anchor:start;fill:#0d2818;stroke:#3fb950;stroke-width:1.71429px;stroke-linecap:butt;stroke-linejoin:miter"
           id="circle37" /><circle
           cx="917.14282"
           cy="222.85715"
           r="10.285714"
           style="color:#ffffff;font-weight:400;font-size:16px;font-family:'Anthropic Sans', '-apple-system', BlinkMacSystemFont, 'Segoe UI', sans-serif;dominant-baseline:auto;text-anchor:start;fill:#3fb950;stroke:none;stroke-width:1.71429px;stroke-linecap:butt;stroke-linejoin:miter"
           id="circle46" /></g><g
         id="g62"><circle
           cx="771.42859"
           cy="137.14285"
           r="30.857143"
           style="color:#ffffff;font-weight:400;font-size:16px;font-family:'Anthropic Sans', '-apple-system', BlinkMacSystemFont, 'Segoe UI', sans-serif;dominant-baseline:auto;text-anchor:start;fill:#1f2937;stroke:#374151;stroke-width:1.37143px;stroke-linecap:butt;stroke-linejoin:miter"
           id="circle38" /><circle
           cx="771.42859"
           cy="137.14285"
           r="8.5714283"
           opacity="0.7"
           style="color:#ffffff;font-weight:400;font-size:16px;font-family:'Anthropic Sans', '-apple-system', BlinkMacSystemFont, 'Segoe UI', sans-serif;dominant-baseline:auto;text-anchor:start;opacity:0.7;fill:#3fb950;stroke:none;stroke-width:1.71429px;stroke-linecap:butt;stroke-linejoin:miter"
           id="circle47" /></g><g
         id="g61"><circle
           cx="1071.4286"
           cy="137.14285"
           r="30.857143"
           style="color:#ffffff;font-weight:400;font-size:16px;font-family:'Anthropic Sans', '-apple-system', BlinkMacSystemFont, 'Segoe UI', sans-serif;dominant-baseline:auto;text-anchor:start;fill:#1f2937;stroke:#374151;stroke-width:1.37143px;stroke-linecap:butt;stroke-linejoin:miter"
           id="circle39" /><circle
           cx="1071.4286"
           cy="137.14285"
           r="8.5714283"
           opacity="0.7"
           style="color:#ffffff;font-weight:400;font-size:16px;font-family:'Anthropic Sans', '-apple-system', BlinkMacSystemFont, 'Segoe UI', sans-serif;dominant-baseline:auto;text-anchor:start;opacity:0.7;fill:#3fb950;stroke:none;stroke-width:1.71429px;stroke-linecap:butt;stroke-linejoin:miter"
           id="circle48" /></g><g
         id="g60"><circle
           cx="1071.4286"
           cy="308.57141"
           r="30.857143"
           style="color:#ffffff;font-weight:400;font-size:16px;font-family:'Anthropic Sans', '-apple-system', BlinkMacSystemFont, 'Segoe UI', sans-serif;dominant-baseline:auto;text-anchor:start;fill:#1f2937;stroke:#374151;stroke-width:1.37143px;stroke-linecap:butt;stroke-linejoin:miter"
           id="circle41" /><circle
           cx="1071.4286"
           cy="308.57141"
           r="8.5714283"
           opacity="0.7"
           style="color:#ffffff;font-weight:400;font-size:16px;font-family:'Anthropic Sans', '-apple-system', BlinkMacSystemFont, 'Segoe UI', sans-serif;dominant-baseline:auto;text-anchor:start;opacity:0.7;fill:#3fb950;stroke:none;stroke-width:1.71429px;stroke-linecap:butt;stroke-linejoin:miter"
           id="circle50" /></g><g
         id="g64"><circle
           cx="917.14282"
           cy="377.14285"
           r="24"
           style="color:#ffffff;font-weight:400;font-size:16px;font-family:'Anthropic Sans', '-apple-system', BlinkMacSystemFont, 'Segoe UI', sans-serif;dominant-baseline:auto;text-anchor:start;fill:#1f2937;stroke:#374151;stroke-width:1.37143px;stroke-linecap:butt;stroke-linejoin:miter"
           id="circle42" /><circle
           cx="917.14282"
           cy="377.14285"
           r="6.8571429"
           opacity="0.6"
           style="color:#ffffff;font-weight:400;font-size:16px;font-family:'Anthropic Sans', '-apple-system', BlinkMacSystemFont, 'Segoe UI', sans-serif;dominant-baseline:auto;text-anchor:start;opacity:0.6;fill:#3fb950;stroke:none;stroke-width:1.71429px;stroke-linecap:butt;stroke-linejoin:miter"
           id="circle51" /></g><g
         id="g63"><circle
           cx="771.42859"
           cy="308.57141"
           r="30.857143"
           style="color:#ffffff;font-weight:400;font-size:16px;font-family:'Anthropic Sans', '-apple-system', BlinkMacSystemFont, 'Segoe UI', sans-serif;dominant-baseline:auto;text-anchor:start;fill:#2d1f00;stroke:#e3b341;stroke-width:1.71429px;stroke-linecap:butt;stroke-linejoin:miter"
           id="circle40" /><circle
           cx="771.42859"
           cy="308.57141"
           r="8.5714283"
           style="color:#ffffff;font-weight:400;font-size:16px;font-family:'Anthropic Sans', '-apple-system', BlinkMacSystemFont, 'Segoe UI', sans-serif;dominant-baseline:auto;text-anchor:start;fill:#e3b341;stroke:none;stroke-width:1.71429px;stroke-linecap:butt;stroke-linejoin:miter"
           id="circle49" /><path
           d="m 761.14285,296.57143 10.28572,-17.14286 10.28571,17.14286 z"
           fill="#e3b341"
           opacity="0.9"
           style="color:#ffffff;font-weight:400;font-size:16px;font-family:'Anthropic Sans', '-apple-system', BlinkMacSystemFont, 'Segoe UI', sans-serif;dominant-baseline:auto;text-anchor:start;opacity:0.9;fill:#e3b341;stroke:none;stroke-width:1.71429px;stroke-linecap:butt;stroke-linejoin:miter"
           id="path51" /></g></g><g
       id="g59"
       inkscape:label="Bar-Chart"
       transform="matrix(1.1188411,0,0,1.1188411,-122.72386,-5.1504922)"><rect
         x="668.57141"
         y="425.14285"
         width="205.71428"
         height="13.714286"
         rx="6.8571429"
         fill="#1f2937"
         style="color:#ffffff;font-weight:400;font-size:16px;font-family:'Anthropic Sans', '-apple-system', BlinkMacSystemFont, 'Segoe UI', sans-serif;dominant-baseline:auto;text-anchor:start;fill:#1f2937;stroke:none;stroke-width:1.71429px;stroke-linecap:butt;stroke-linejoin:miter"
         id="rect51" /><rect
         x="668.57141"
         y="425.14285"
         width="171.42857"
         height="13.714286"
         rx="6.8571429"
         fill="#3fb950"
         opacity="0.6"
         style="color:#ffffff;font-weight:400;font-size:16px;font-family:'Anthropic Sans', '-apple-system', BlinkMacSystemFont, 'Segoe UI', sans-serif;dominant-baseline:auto;text-anchor:start;opacity:0.6;fill:#3fb950;stroke:none;stroke-width:1.71429px;stroke-linecap:butt;stroke-linejoin:miter"
         id="rect52" /><rect
         x="668.57141"
         y="452.57141"
         width="205.71428"
         height="13.714286"
         rx="6.8571429"
         fill="#1f2937"
         style="color:#ffffff;font-weight:400;font-size:16px;font-family:'Anthropic Sans', '-apple-system', BlinkMacSystemFont, 'Segoe UI', sans-serif;dominant-baseline:auto;text-anchor:start;fill:#1f2937;stroke:none;stroke-width:1.71429px;stroke-linecap:butt;stroke-linejoin:miter"
         id="rect53" /><rect
         x="668.57141"
         y="452.57141"
         width="99.428574"
         height="13.714286"
         rx="6.8571429"
         fill="#e3b341"
         opacity="0.7"
         style="color:#ffffff;font-weight:400;font-size:16px;font-family:'Anthropic Sans', '-apple-system', BlinkMacSystemFont, 'Segoe UI', sans-serif;dominant-baseline:auto;text-anchor:start;opacity:0.7;fill:#e3b341;stroke:none;stroke-width:1.71429px;stroke-linecap:butt;stroke-linejoin:miter"
         id="rect54" /><rect
         x="668.57141"
         y="480"
         width="205.71428"
         height="13.714286"
         rx="6.8571429"
         fill="#1f2937"
         style="color:#ffffff;font-weight:400;font-size:16px;font-family:'Anthropic Sans', '-apple-system', BlinkMacSystemFont, 'Segoe UI', sans-serif;dominant-baseline:auto;text-anchor:start;fill:#1f2937;stroke:none;stroke-width:1.71429px;stroke-linecap:butt;stroke-linejoin:miter"
         id="rect55-7" /><rect
         x="668.57141"
         y="480"
         width="192"
         height="13.714286"
         rx="6.8571429"
         fill="#3fb950"
         opacity="0.5"
         style="color:#ffffff;font-weight:400;font-size:16px;font-family:'Anthropic Sans', '-apple-system', BlinkMacSystemFont, 'Segoe UI', sans-serif;dominant-baseline:auto;text-anchor:start;opacity:0.5;fill:#3fb950;stroke:none;stroke-width:1.71429px;stroke-linecap:butt;stroke-linejoin:miter"
         id="rect56" /><rect
         x="668.57141"
         y="507.42856"
         width="205.71428"
         height="13.714286"
         rx="6.8571429"
         fill="#1f2937"
         style="color:#ffffff;font-weight:400;font-size:16px;font-family:'Anthropic Sans', '-apple-system', BlinkMacSystemFont, 'Segoe UI', sans-serif;dominant-baseline:auto;text-anchor:start;fill:#1f2937;stroke:none;stroke-width:1.71429px;stroke-linecap:butt;stroke-linejoin:miter"
         id="rect57" /><rect
         x="668.57141"
         y="507.42856"
         width="51.42857"
         height="13.714286"
         rx="6.8571429"
         fill="#f85149"
         opacity="0.7"
         style="color:#ffffff;font-weight:400;font-size:16px;font-family:'Anthropic Sans', '-apple-system', BlinkMacSystemFont, 'Segoe UI', sans-serif;dominant-baseline:auto;text-anchor:start;opacity:0.7;fill:#f85149;stroke:none;stroke-width:1.71429px;stroke-linecap:butt;stroke-linejoin:miter"
         id="rect58" /><circle
         cx="898.28571"
         cy="432"
         r="6.8571429"
         opacity="0.8"
         style="color:#ffffff;font-weight:400;font-size:16px;font-family:'Anthropic Sans', '-apple-system', BlinkMacSystemFont, 'Segoe UI', sans-serif;dominant-baseline:auto;text-anchor:start;opacity:0.8;fill:#3fb950;stroke:none;stroke-width:1.71429px;stroke-linecap:butt;stroke-linejoin:miter"
         id="circle58" /><circle
         cx="898.28571"
         cy="459.42856"
         r="6.8571429"
         opacity="0.9"
         style="color:#ffffff;font-weight:400;font-size:16px;font-family:'Anthropic Sans', '-apple-system', BlinkMacSystemFont, 'Segoe UI', sans-serif;dominant-baseline:auto;text-anchor:start;opacity:0.9;fill:#e3b341;stroke:none;stroke-width:1.71429px;stroke-linecap:butt;stroke-linejoin:miter"
         id="circle59" /><circle
         cx="898.28571"
         cy="486.85715"
         r="6.8571429"
         opacity="0.8"
         style="color:#ffffff;font-weight:400;font-size:16px;font-family:'Anthropic Sans', '-apple-system', BlinkMacSystemFont, 'Segoe UI', sans-serif;dominant-baseline:auto;text-anchor:start;opacity:0.8;fill:#3fb950;stroke:none;stroke-width:1.71429px;stroke-linecap:butt;stroke-linejoin:miter"
         id="circle60" /><circle
         cx="898.28571"
         cy="514.28571"
         r="6.8571429"
         opacity="0.9"
         style="color:#ffffff;font-weight:400;font-size:16px;font-family:'Anthropic Sans', '-apple-system', BlinkMacSystemFont, 'Segoe UI', sans-serif;dominant-baseline:auto;text-anchor:start;opacity:0.9;fill:#f85149;stroke:none;stroke-width:1.71429px;stroke-linecap:butt;stroke-linejoin:miter"
         id="circle61" /></g><g
       id="g58"
       inkscape:label="Line-Charts"
       transform="matrix(1.1188411,0,0,1.1188411,-122.72386,-5.1504922)"><polyline
         points="540,270 552,260 562,268 574,255 584,265 596,248 608,262 620,254 632,265 644,250 656,263"
         fill="none"
         stroke="#3fb950"
         stroke-width="1.2"
         opacity="0.6"
         style="color:#ffffff;font-weight:400;font-size:16px;font-family:'Anthropic Sans', '-apple-system', BlinkMacSystemFont, 'Segoe UI', sans-serif;dominant-baseline:auto;text-anchor:start;opacity:0.6;fill:none;stroke:#3fb950;stroke-width:1.2px;stroke-linecap:butt;stroke-linejoin:miter"
         id="polyline61"
         transform="matrix(1.7142857,0,0,1.7142857,34.285714,0)" /><polyline
         points="540,295 552,300 562,290 574,298 584,285 596,294 608,288 620,298 632,283 644,292 656,300"
         fill="none"
         stroke="#4a90d9"
         stroke-width="1.2"
         opacity="0.5"
         style="color:#ffffff;font-weight:400;font-size:16px;font-family:'Anthropic Sans', '-apple-system', BlinkMacSystemFont, 'Segoe UI', sans-serif;dominant-baseline:auto;text-anchor:start;opacity:0.5;fill:none;stroke:#4a90d9;stroke-width:1.2px;stroke-linecap:butt;stroke-linejoin:miter"
         id="polyline62"
         transform="matrix(1.7142857,0,0,1.7142857,34.285714,0)" /></g></g><g
     id="g57"
     inkscape:label="Notebook"><rect
       style="fill:#ffffff;fill-rule:evenodd;fill-opacity:1"
       id="rect1"
       width="600"
       height="628"
       x="0"
       y="0"
       inkscape:label="Jupyter-Background" /><g
       id="g49"
       transform="matrix(2.4492734,0,0,2.4492734,1058.1643,-1123.3808)"
       inkscape:label="Chart"><rect
         x="-405.60001"
         y="676.40002"
         width="210"
         height="28"
         rx="4"
         stroke="#d0d7de"
         stroke-width="0.8"
         style="color:#ffffff;font-weight:400;font-size:16px;font-family:'Anthropic Sans', '-apple-system', BlinkMacSystemFont, 'Segoe UI', sans-serif;dominant-baseline:auto;text-anchor:start;opacity:0.05;fill:#0969da;stroke:#d0d7de;stroke-width:0.8px;stroke-linecap:butt;stroke-linejoin:miter"
         id="rect30-5" /><rect
         x="-397.60001"
         y="684.40002"
         width="183"
         height="12"
         rx="3"
         fill="#d0d7de"
         opacity="0.4"
         style="color:#ffffff;font-weight:400;font-size:16px;font-family:'Anthropic Sans', '-apple-system', BlinkMacSystemFont, 'Segoe UI', sans-serif;dominant-baseline:auto;text-anchor:start;opacity:0.4;fill:#d0d7de;stroke:none;stroke-width:1px;stroke-linecap:butt;stroke-linejoin:miter"
         id="rect31-6" /><rect
         x="-397.60001"
         y="684.40002"
         width="159"
         height="12"
         rx="3"
         fill="#0969da"
         opacity="0.22"
         style="color:#ffffff;font-weight:400;font-size:16px;font-family:'Anthropic Sans', '-apple-system', BlinkMacSystemFont, 'Segoe UI', sans-serif;dominant-baseline:auto;text-anchor:start;opacity:0.22;fill:#0969da;stroke:none;stroke-width:1px;stroke-linecap:butt;stroke-linejoin:miter"
         id="rect32-7" /></g><g
       id="g56"
       inkscape:label="Cell-3-Active"><rect
         style="fill:#f2f2f2;fill-opacity:1;fill-rule:evenodd;stroke:#5ca7d6;stroke-width:3.497;stroke-dasharray:none;stroke-opacity:1"
         id="rect39"
         width="512.80975"
         height="146.41937"
         x="65.507828"
         y="362.90015"
         inkscape:label="Cell-Background" /><g
         id="g42"
         transform="matrix(1.133078,0,0,1.133078,-76.786874,134.57188)"
         inkscape:label="Lines"><path
           id="rect40"
           style="color:#ffffff;font-size:16px;font-family:'Anthropic Sans', '-apple-system', BlinkMacSystemFont, 'Segoe UI', sans-serif;opacity:1;fill:#d9d9d9;stroke-width:1.69705px"
           d="m 180.4832,224.58273 h 222.02887 c 3.56581,0 6.43648,2.87067 6.43648,6.43649 0,3.56581 -2.87067,6.43648 -6.43648,6.43648 H 180.4832 c -3.56581,0 -6.43648,-2.87067 -6.43648,-6.43648 0,-3.56582 2.87067,-6.43649 6.43648,-6.43649 z" /><path
           id="rect41"
           style="color:#ffffff;font-size:16px;font-family:'Anthropic Sans', '-apple-system', BlinkMacSystemFont, 'Segoe UI', sans-serif;opacity:1;fill:#d9d9d9;stroke-width:1.64868px"
           d="m 180.4832,250.08609 h 208.82975 c 3.56581,0 6.43649,2.87067 6.43649,6.43648 0,3.56581 -2.87068,6.43648 -6.43649,6.43648 H 180.4832 c -3.56581,0 -6.43648,-2.87067 -6.43648,-6.43648 0,-3.56581 2.87067,-6.43648 6.43648,-6.43648 z" /><path
           id="rect42"
           style="color:#ffffff;font-size:16px;font-family:'Anthropic Sans', '-apple-system', BlinkMacSystemFont, 'Segoe UI', sans-serif;opacity:1;fill:#d9d9d9;stroke-width:2.16801px"
           d="m 180.4832,277.92743 h 370.49935 c 3.56582,0 6.43649,2.87067 6.43649,6.43648 0,3.56581 -2.87067,6.43648 -6.43649,6.43648 H 180.4832 c -3.56581,0 -6.43648,-2.87067 -6.43648,-6.43648 0,-3.56581 2.87067,-6.43648 6.43648,-6.43648 z" /></g><path
         id="rect43"
         style="color:#ffffff;font-size:16px;font-family:'Anthropic Sans', '-apple-system', BlinkMacSystemFont, 'Segoe UI', sans-serif;opacity:1;fill:#ededed;stroke-width:0.757575px"
         inkscape:label="Execution-Count"
         d="m 32.784534,485.33148 h 11.65586 c 5.374434,0 9.701145,4.32671 9.701145,9.70115 0,5.37443 -4.326711,9.70114 -9.701145,9.70114 h -11.65586 c -5.374434,0 -9.701145,-4.32671 -9.701145,-9.70114 0,-5.37444 4.326711,-9.70115 9.701145,-9.70115 z" /><g
         id="g50"
         inkscape:label="Status"><path
           id="rect44"
           style="color:#ffffff;font-size:16px;font-family:'Anthropic Sans', '-apple-system', BlinkMacSystemFont, 'Segoe UI', sans-serif;opacity:1;fill:#e5e5e5;stroke-width:0.765766px"
           d="m 127.71467,485.33148 h 27.62542 c 4.04035,0 7.29304,3.2527 7.29304,7.29304 0,4.04034 -3.25269,7.29303 -7.29304,7.29303 h -27.62542 c -4.04034,0 -7.29303,-3.25269 -7.29303,-7.29303 0,-4.04034 3.25269,-7.29304 7.29303,-7.29304 z" /><path
           id="path44"
           style="color:#ffffff;font-weight:400;font-size:16px;font-family:'Anthropic Sans', '-apple-system', BlinkMacSystemFont, 'Segoe UI', sans-serif;dominant-baseline:auto;text-anchor:start;fill:#86ae83;fill-opacity:1;stroke:none;stroke-width:0.27604px;stroke-linecap:butt;stroke-linejoin:miter"
           d="m 107.58487,484.56533 c -0.41406,0 -0.82908,0.15853 -1.14636,0.47579 l -10.215398,10.21762 -3.374884,-3.37488 c -0.634558,-0.63455 -1.65596,-0.63455 -2.290506,0 -0.634558,0.63454 -0.634547,1.65595 0,2.29049 l 4.519032,4.51903 c 0.158642,0.15865 0.340615,0.27921 0.535549,0.35852 6.24e-4,2.5e-4 0.0011,-2.5e-4 0.0023,0 0.04815,0.0195 0.09665,0.0363 0.146065,0.0509 6.68e-4,1.9e-4 0.0011,-2.1e-4 0.0023,0 0.550098,0.16264 1.168736,0.0263 1.60445,-0.40943 l 11.361772,-11.36176 c 0.63455,-0.63454 0.63455,-1.65595 0,-2.29049 -0.31728,-0.31728 -0.73009,-0.47582 -1.14415,-0.4758 z" /></g><g
         id="g46"
         transform="matrix(1.133078,0,0,1.133078,-76.786874,318.11463)"
         inkscape:label="Arrows"><path
           style="fill:#ffffff;fill-opacity:0;stroke:#999999;stroke-width:1.77699;stroke-linecap:round;stroke-linejoin:round;stroke-dasharray:none;stroke-opacity:1"
           d="m 88.952409,48.65101 6.876856,3.970355 a 1.1547006,1.1547006 90 0 1 0,2 l -6.876856,3.970355 a 1.1547005,1.1547005 30 0 1 -1.732051,-1 v -7.94071 a 1.1547005,1.1547005 150 0 1 1.732051,-1 z"
           id="path45"
           transform="matrix(1.1254965,0,0,1.1254965,-11.805133,-6.292774)"
           inkscape:original-d="M 87.220358,47.65101 97.561316,53.621365 87.220358,59.59172 Z"
           inkscape:path-effect="#path-effect49" /><path
           style="fill:#ffffff;fill-opacity:0;stroke:#999999;stroke-width:2;stroke-linecap:round;stroke-linejoin:round;stroke-dasharray:none;stroke-opacity:1"
           d="m 109.84375,52.034468 4.04687,4.046875 4.04688,-4.046875"
           id="path46" /></g><rect
         style="fill:#5ca6d6;fill-opacity:1;fill-rule:evenodd;stroke-width:0;stroke-dasharray:none"
         id="rect55"
         width="8"
         height="149.91652"
         x="4"
         y="361.15155"
         inkscape:label="Marker" /></g><g
       id="g54"
       inkscape:label="Cell-2"><rect
         style="fill:#f2f2f2;fill-opacity:1;fill-rule:evenodd;stroke:#e5e5e5;stroke-width:3.49709;stroke-dasharray:none;stroke-opacity:1"
         id="rect29"
         width="512.80975"
         height="146.41937"
         x="65.507828"
         y="191.72362"
         inkscape:label="Background" /><g
         id="g32"
         transform="matrix(1.133078,0,0,1.133078,-76.786874,-36.60465)"
         inkscape:label="Lines"><path
           id="rect30"
           style="color:#ffffff;font-size:16px;font-family:'Anthropic Sans', '-apple-system', BlinkMacSystemFont, 'Segoe UI', sans-serif;opacity:1;fill:#d9d9d9;stroke-width:1.69705px"
           d="m 180.4832,224.58273 h 222.02887 c 3.56581,0 6.43648,2.87067 6.43648,6.43649 0,3.56581 -2.87067,6.43648 -6.43648,6.43648 H 180.4832 c -3.56581,0 -6.43648,-2.87067 -6.43648,-6.43648 0,-3.56582 2.87067,-6.43649 6.43648,-6.43649 z" /><path
           id="rect31"
           style="color:#ffffff;font-size:16px;font-family:'Anthropic Sans', '-apple-system', BlinkMacSystemFont, 'Segoe UI', sans-serif;opacity:1;fill:#d9d9d9;stroke-width:1.64868px"
           d="m 180.4832,250.08609 h 208.82975 c 3.56581,0 6.43649,2.87067 6.43649,6.43648 0,3.56581 -2.87068,6.43648 -6.43649,6.43648 H 180.4832 c -3.56581,0 -6.43648,-2.87067 -6.43648,-6.43648 0,-3.56581 2.87067,-6.43648 6.43648,-6.43648 z" /><path
           id="rect32"
           style="color:#ffffff;font-size:16px;font-family:'Anthropic Sans', '-apple-system', BlinkMacSystemFont, 'Segoe UI', sans-serif;opacity:1;fill:#d9d9d9;stroke-width:2.16801px"
           d="m 180.4832,277.92743 h 370.49935 c 3.56582,0 6.43649,2.87067 6.43649,6.43648 0,3.56581 -2.87067,6.43648 -6.43649,6.43648 H 180.4832 c -3.56581,0 -6.43648,-2.87067 -6.43648,-6.43648 0,-3.56581 2.87067,-6.43648 6.43648,-6.43648 z" /></g><path
         id="rect33"
         style="color:#ffffff;font-size:16px;font-family:'Anthropic Sans', '-apple-system', BlinkMacSystemFont, 'Segoe UI', sans-serif;opacity:1;fill:#ededed;stroke-width:0.757575px"
         inkscape:label="Exeuction-Count"
         d="m 32.784534,314.15494 h 11.65586 c 5.374434,0 9.701145,4.32671 9.701145,9.70114 0,5.37444 -4.326711,9.70115 -9.701145,9.70115 h -11.65586 c -5.374434,0 -9.701145,-4.32671 -9.701145,-9.70115 0,-5.37443 4.326711,-9.70114 9.701145,-9.70114 z" /><g
         id="g51"
         inkscape:label="Status"><path
           id="rect34"
           style="color:#ffffff;font-size:16px;font-family:'Anthropic Sans', '-apple-system', BlinkMacSystemFont, 'Segoe UI', sans-serif;opacity:1;fill:#e5e5e5;stroke-width:0.765766px"
           d="m 127.71467,314.15494 h 27.62542 c 4.04035,0 7.29304,3.25269 7.29304,7.29303 0,4.04035 -3.25269,7.29304 -7.29304,7.29304 h -27.62542 c -4.04034,0 -7.29303,-3.25269 -7.29303,-7.29304 0,-4.04034 3.25269,-7.29303 7.29303,-7.29303 z" /><path
           id="path34"
           style="color:#ffffff;font-weight:400;font-size:16px;font-family:'Anthropic Sans', '-apple-system', BlinkMacSystemFont, 'Segoe UI', sans-serif;dominant-baseline:auto;text-anchor:start;fill:#86ae83;fill-opacity:1;stroke:none;stroke-width:0.27604px;stroke-linecap:butt;stroke-linejoin:miter"
           d="m 107.58487,313.3888 c -0.41406,0 -0.82908,0.15853 -1.14636,0.47579 l -10.215398,10.21762 -3.374884,-3.37488 c -0.634558,-0.63455 -1.65596,-0.63455 -2.290506,0 -0.634558,0.63454 -0.634547,1.65595 0,2.29049 l 4.519032,4.51903 c 0.158642,0.15865 0.340615,0.27921 0.535549,0.35852 6.24e-4,2.5e-4 0.0011,-2.5e-4 0.0023,0 0.04815,0.0195 0.09665,0.0363 0.146065,0.0509 6.68e-4,1.9e-4 0.0011,-2.1e-4 0.0023,0 0.550098,0.16264 1.168736,0.0263 1.60445,-0.40943 l 11.361772,-11.36176 c 0.63455,-0.63454 0.63455,-1.65595 0,-2.29049 -0.31728,-0.31728 -0.73009,-0.47582 -1.14415,-0.4758 z" /></g><g
         id="g36"
         transform="matrix(1.133078,0,0,1.133078,-76.786874,146.9381)"
         inkscape:label="Arrows"><path
           style="fill:#ffffff;fill-opacity:0;stroke:#999999;stroke-width:1.77699;stroke-linecap:round;stroke-linejoin:round;stroke-dasharray:none;stroke-opacity:1"
           d="m 88.952409,48.65101 6.876856,3.970355 a 1.1547006,1.1547006 90 0 1 0,2 l -6.876856,3.970355 a 1.1547005,1.1547005 30 0 1 -1.732051,-1 v -7.94071 a 1.1547005,1.1547005 150 0 1 1.732051,-1 z"
           id="path35"
           transform="matrix(1.1254965,0,0,1.1254965,-11.805133,-6.292774)"
           inkscape:original-d="M 87.220358,47.65101 97.561316,53.621365 87.220358,59.59172 Z"
           inkscape:path-effect="#path-effect39" /><path
           style="fill:#ffffff;fill-opacity:0;stroke:#999999;stroke-width:2;stroke-linecap:round;stroke-linejoin:round;stroke-dasharray:none;stroke-opacity:1"
           d="m 109.84375,52.034468 4.04687,4.046875 4.04688,-4.046875"
           id="path36" /></g></g><g
       id="g55"
       inkscape:label="Cell-1"><rect
         style="fill:#f2f2f2;fill-opacity:1;fill-rule:evenodd;stroke:#e5e5e5;stroke-width:3.49709;stroke-dasharray:none;stroke-opacity:1"
         id="rect2"
         width="512.80975"
         height="146.41937"
         x="65.507828"
         y="26.881372"
         inkscape:label="Background" /><g
         id="g19"
         transform="matrix(1.133078,0,0,1.133078,-76.786874,-201.4469)"
         inkscape:label="Lines"><path
           id="rect6"
           style="color:#ffffff;font-size:16px;font-family:'Anthropic Sans', '-apple-system', BlinkMacSystemFont, 'Segoe UI', sans-serif;opacity:1;fill:#d9d9d9;stroke-width:1.69705px"
           d="m 180.4832,224.58273 h 222.02887 c 3.56581,0 6.43648,2.87067 6.43648,6.43649 0,3.56581 -2.87067,6.43648 -6.43648,6.43648 H 180.4832 c -3.56581,0 -6.43648,-2.87067 -6.43648,-6.43648 0,-3.56582 2.87067,-6.43649 6.43648,-6.43649 z" /><path
           id="rect14"
           style="color:#ffffff;font-size:16px;font-family:'Anthropic Sans', '-apple-system', BlinkMacSystemFont, 'Segoe UI', sans-serif;opacity:1;fill:#d9d9d9;stroke-width:1.64868px"
           d="m 180.4832,250.08609 h 208.82975 c 3.56581,0 6.43649,2.87067 6.43649,6.43648 0,3.56581 -2.87068,6.43648 -6.43649,6.43648 H 180.4832 c -3.56581,0 -6.43648,-2.87067 -6.43648,-6.43648 0,-3.56581 2.87067,-6.43648 6.43648,-6.43648 z" /><path
           id="rect15"
           style="color:#ffffff;font-size:16px;font-family:'Anthropic Sans', '-apple-system', BlinkMacSystemFont, 'Segoe UI', sans-serif;opacity:1;fill:#d9d9d9;stroke-width:2.16801px"
           d="m 180.4832,277.92743 h 370.49935 c 3.56582,0 6.43649,2.87067 6.43649,6.43648 0,3.56581 -2.87067,6.43648 -6.43649,6.43648 H 180.4832 c -3.56581,0 -6.43648,-2.87067 -6.43648,-6.43648 0,-3.56581 2.87067,-6.43648 6.43648,-6.43648 z" /></g><path
         id="rect17"
         style="color:#ffffff;font-size:16px;font-family:'Anthropic Sans', '-apple-system', BlinkMacSystemFont, 'Segoe UI', sans-serif;opacity:1;fill:#ededed;stroke-width:0.757575px"
         inkscape:label="Execution-Count"
         d="m 32.784534,149.31271 h 11.65586 c 5.374434,0 9.701145,4.32671 9.701145,9.70115 0,5.37443 -4.326711,9.70114 -9.701145,9.70114 h -11.65586 c -5.374434,0 -9.701145,-4.32671 -9.701145,-9.70114 0,-5.37444 4.326711,-9.70115 9.701145,-9.70115 z" /><g
         id="g52"
         inkscape:label="Status"><path
           id="rect16"
           style="color:#ffffff;font-size:16px;font-family:'Anthropic Sans', '-apple-system', BlinkMacSystemFont, 'Segoe UI', sans-serif;opacity:1;fill:#e5e5e5;stroke-width:0.765766px"
           d="m 127.71467,149.3127 h 27.62542 c 4.04035,0 7.29304,3.25269 7.29304,7.29303 0,4.04035 -3.25269,7.29304 -7.29304,7.29304 h -27.62542 c -4.04034,0 -7.29303,-3.25269 -7.29303,-7.29304 0,-4.04034 3.25269,-7.29303 7.29303,-7.29303 z" /><path
           id="rect18"
           style="color:#ffffff;font-weight:400;font-size:16px;font-family:'Anthropic Sans', '-apple-system', BlinkMacSystemFont, 'Segoe UI', sans-serif;dominant-baseline:auto;text-anchor:start;fill:#86ae83;fill-opacity:1;stroke:none;stroke-width:0.27604px;stroke-linecap:butt;stroke-linejoin:miter"
           d="m 107.58487,148.54655 c -0.41406,0 -0.82908,0.15853 -1.14636,0.47579 l -10.215398,10.21762 -3.374884,-3.37488 c -0.634558,-0.63455 -1.65596,-0.63455 -2.290506,0 -0.634558,0.63454 -0.634547,1.65595 0,2.29049 l 4.519032,4.51903 c 0.158642,0.15865 0.340615,0.27921 0.535549,0.35852 6.24e-4,2.5e-4 0.0011,-2.5e-4 0.0023,0 0.04815,0.0195 0.09665,0.0363 0.146065,0.0509 6.68e-4,1.9e-4 0.0011,-2.1e-4 0.0023,0 0.550098,0.16264 1.168736,0.0263 1.60445,-0.40943 l 11.361772,-11.36176 c 0.63455,-0.63454 0.63455,-1.65595 0,-2.29049 -0.31728,-0.31728 -0.73009,-0.47582 -1.14415,-0.4758 z" /></g><g
         id="g27"
         transform="matrix(1.133078,0,0,1.133078,-76.786874,-17.904146)"
         inkscape:label="Arrows"><path
           style="fill:#ffffff;fill-opacity:0;stroke:#999999;stroke-width:1.77699;stroke-linecap:round;stroke-linejoin:round;stroke-dasharray:none;stroke-opacity:1"
           d="m 88.952409,48.65101 6.876856,3.970355 a 1.1547006,1.1547006 90 0 1 0,2 l -6.876856,3.970355 a 1.1547005,1.1547005 30 0 1 -1.732051,-1 v -7.94071 a 1.1547005,1.1547005 150 0 1 1.732051,-1 z"
           id="path23"
           transform="matrix(1.1254965,0,0,1.1254965,-11.805133,-6.292774)"
           inkscape:original-d="M 87.220358,47.65101 97.561316,53.621365 87.220358,59.59172 Z"
           inkscape:path-effect="#path-effect23" /><path
           style="fill:#ffffff;fill-opacity:0;stroke:#999999;stroke-width:2;stroke-linecap:round;stroke-linejoin:round;stroke-dasharray:none;stroke-opacity:1"
           d="m 109.84375,52.034468 4.04687,4.046875 4.04688,-4.046875"
           id="path27" /></g></g></g></svg>
